<mxfile host="app.diagrams.net" modified="2024-03-19T15:12:09.996Z" agent="Mozilla/5.0 (X11; Linux x86_64; rv:123.0) Gecko/20100101 Firefox/123.0" etag="EWEGHl2IMXqscz1hulpf" version="24.0.7" type="device">
  <diagram name="Page-1" id="vlnbumIxQ-X_5d-MInLh">
    <mxGraphModel dx="1050" dy="546" grid="1" gridSize="10" guides="1" tooltips="1" connect="1" arrows="1" fold="1" page="1" pageScale="1" pageWidth="850" pageHeight="1100" math="0" shadow="0">
      <root>
        <mxCell id="0" />
        <mxCell id="1" parent="0" />
        <mxCell id="vI-MFLkhHtfMaqCm2XP_-1" value="" style="endArrow=block;html=1;fontColor=#000099;exitX=0.5;exitY=0;exitDx=0;exitDy=0;endFill=0;entryX=0.5;entryY=1;entryDx=0;entryDy=0;endSize=8;arcSize=0;rounded=0;" parent="1" source="vI-MFLkhHtfMaqCm2XP_-10" target="vI-MFLkhHtfMaqCm2XP_-2" edge="1">
          <mxGeometry width="50" height="50" relative="1" as="geometry">
            <mxPoint x="-45" y="180" as="sourcePoint" />
            <mxPoint x="112.99999999998931" y="180" as="targetPoint" />
          </mxGeometry>
        </mxCell>
        <mxCell id="vI-MFLkhHtfMaqCm2XP_-2" value="prov:Collection" style="rounded=0;whiteSpace=wrap;html=1;snapToPoint=1;points=[[0.1,0],[0.2,0],[0.3,0],[0.4,0],[0.5,0],[0.6,0],[0.7,0],[0.8,0],[0.9,0],[0,0.1],[0,0.3],[0,0.5],[0,0.7],[0,0.9],[0.1,1],[0.2,1],[0.3,1],[0.4,1],[0.5,1],[0.6,1],[0.7,1],[0.8,1],[0.9,1],[1,0.1],[1,0.3],[1,0.5],[1,0.7],[1,0.9]];" parent="1" vertex="1">
          <mxGeometry x="180" y="140" width="100" height="30" as="geometry" />
        </mxCell>
        <mxCell id="vI-MFLkhHtfMaqCm2XP_-6" value="" style="endArrow=classic;html=1;exitX=1;exitY=0.5;exitDx=0;exitDy=0;entryX=0;entryY=0.5;entryDx=0;entryDy=0;endSize=8;arcSize=0;rounded=0;" parent="1" source="vI-MFLkhHtfMaqCm2XP_-10" target="vI-MFLkhHtfMaqCm2XP_-12" edge="1">
          <mxGeometry width="50" height="50" relative="1" as="geometry">
            <mxPoint x="210" y="328.33" as="sourcePoint" />
            <mxPoint x="422.0000000000002" y="328.33" as="targetPoint" />
          </mxGeometry>
        </mxCell>
        <mxCell id="vI-MFLkhHtfMaqCm2XP_-7" value="prov:hadMember" style="text;html=1;align=center;verticalAlign=middle;resizable=0;points=[];labelBackgroundColor=#ffffff;" parent="vI-MFLkhHtfMaqCm2XP_-6" vertex="1" connectable="0">
          <mxGeometry x="-0.1269" relative="1" as="geometry">
            <mxPoint x="4.17" as="offset" />
          </mxGeometry>
        </mxCell>
        <mxCell id="vI-MFLkhHtfMaqCm2XP_-8" value="&lt;div&gt;&lt;b&gt;prov&lt;/b&gt;: http://www.w3.org/ns/prov#&lt;/div&gt;&lt;div&gt;&lt;b&gt;ftr:&lt;/b&gt; https://w3id.org/fair_test_result#&lt;br&gt;&lt;b&gt;schema&lt;/b&gt;: https://schema.org/&lt;/div&gt;&lt;div&gt;&lt;b&gt;dqv&lt;/b&gt;: http://www.w3.org/ns/dqv#&lt;/div&gt;" style="shape=note;whiteSpace=wrap;html=1;backgroundOutline=1;darkOpacity=0.05;" parent="1" vertex="1">
          <mxGeometry x="180" y="30" width="290" height="100" as="geometry" />
        </mxCell>
        <mxCell id="vI-MFLkhHtfMaqCm2XP_-19" value="prov:wasGeneratedBy" style="edgeStyle=orthogonalEdgeStyle;rounded=0;orthogonalLoop=1;jettySize=auto;html=1;exitX=0.5;exitY=1;exitDx=0;exitDy=0;entryX=0.5;entryY=0;entryDx=0;entryDy=0;" parent="1" source="vI-MFLkhHtfMaqCm2XP_-9" target="vI-MFLkhHtfMaqCm2XP_-18" edge="1">
          <mxGeometry relative="1" as="geometry" />
        </mxCell>
        <mxCell id="vI-MFLkhHtfMaqCm2XP_-33" value="dqv:computedOn" style="edgeStyle=orthogonalEdgeStyle;rounded=0;orthogonalLoop=1;jettySize=auto;html=1;exitX=1;exitY=0.7;exitDx=0;exitDy=0;entryX=0.1;entryY=0;entryDx=0;entryDy=0;" parent="1" source="vI-MFLkhHtfMaqCm2XP_-9" target="vI-MFLkhHtfMaqCm2XP_-21" edge="1">
          <mxGeometry relative="1" as="geometry">
            <Array as="points">
              <mxPoint x="319" y="300" />
              <mxPoint x="330" y="300" />
              <mxPoint x="330" y="360" />
              <mxPoint x="538" y="360" />
            </Array>
          </mxGeometry>
        </mxCell>
        <mxCell id="vI-MFLkhHtfMaqCm2XP_-9" value="schema:identifier&lt;br&gt;schema:name&lt;br&gt;ftr:rubric&lt;br&gt;schema:license" style="rounded=0;whiteSpace=wrap;html=1;snapToPoint=1;points=[[0.1,0],[0.2,0],[0.3,0],[0.4,0],[0.5,0],[0.6,0],[0.7,0],[0.8,0],[0.9,0],[0,0.1],[0,0.3],[0,0.5],[0,0.7],[0,0.9],[0.1,1],[0.2,1],[0.3,1],[0.4,1],[0.5,1],[0.6,1],[0.7,1],[0.8,1],[0.9,1],[1,0.1],[1,0.3],[1,0.5],[1,0.7],[1,0.9]];" parent="1" vertex="1">
          <mxGeometry x="140" y="250" width="179" height="60" as="geometry" />
        </mxCell>
        <mxCell id="vI-MFLkhHtfMaqCm2XP_-10" value="ftr:TestResultSet" style="rounded=0;whiteSpace=wrap;html=1;snapToPoint=1;points=[[0.1,0],[0.2,0],[0.3,0],[0.4,0],[0.5,0],[0.6,0],[0.7,0],[0.8,0],[0.9,0],[0,0.1],[0,0.3],[0,0.5],[0,0.7],[0,0.9],[0.1,1],[0.2,1],[0.3,1],[0.4,1],[0.5,1],[0.6,1],[0.7,1],[0.8,1],[0.9,1],[1,0.1],[1,0.3],[1,0.5],[1,0.7],[1,0.9]];" parent="1" vertex="1">
          <mxGeometry x="140" y="219.9999999999999" width="179" height="30" as="geometry" />
        </mxCell>
        <mxCell id="vI-MFLkhHtfMaqCm2XP_-20" value="prov:wasGeneratedBy" style="edgeStyle=orthogonalEdgeStyle;rounded=0;orthogonalLoop=1;jettySize=auto;html=1;exitX=0;exitY=0.5;exitDx=0;exitDy=0;entryX=0.7;entryY=0;entryDx=0;entryDy=0;" parent="1" source="vI-MFLkhHtfMaqCm2XP_-11" target="vI-MFLkhHtfMaqCm2XP_-18" edge="1">
          <mxGeometry x="-0.3074" relative="1" as="geometry">
            <mxPoint x="400" y="430" as="targetPoint" />
            <mxPoint as="offset" />
          </mxGeometry>
        </mxCell>
        <mxCell id="vI-MFLkhHtfMaqCm2XP_-23" value="dqv:computedOn" style="edgeStyle=orthogonalEdgeStyle;rounded=0;orthogonalLoop=1;jettySize=auto;html=1;exitX=0.5;exitY=1;exitDx=0;exitDy=0;entryX=0.5;entryY=0;entryDx=0;entryDy=0;" parent="1" source="vI-MFLkhHtfMaqCm2XP_-11" target="vI-MFLkhHtfMaqCm2XP_-21" edge="1">
          <mxGeometry relative="1" as="geometry" />
        </mxCell>
        <mxCell id="vI-MFLkhHtfMaqCm2XP_-37" value="schema:isPartOf" style="edgeStyle=orthogonalEdgeStyle;rounded=0;orthogonalLoop=1;jettySize=auto;html=1;exitX=0;exitY=0.1;exitDx=0;exitDy=0;entryX=1;entryY=0.1;entryDx=0;entryDy=0;" parent="1" source="vI-MFLkhHtfMaqCm2XP_-11" target="vI-MFLkhHtfMaqCm2XP_-9" edge="1">
          <mxGeometry relative="1" as="geometry" />
        </mxCell>
        <mxCell id="4Ok5eEkKAuBObgln4hZ5-1" value="prov:wasAttributedTo" style="edgeStyle=orthogonalEdgeStyle;rounded=0;orthogonalLoop=1;jettySize=auto;html=1;exitX=1;exitY=0.9;exitDx=0;exitDy=0;entryX=1;entryY=0.1;entryDx=0;entryDy=0;" edge="1" parent="1" source="vI-MFLkhHtfMaqCm2XP_-11" target="vI-MFLkhHtfMaqCm2XP_-27">
          <mxGeometry relative="1" as="geometry" />
        </mxCell>
        <mxCell id="vI-MFLkhHtfMaqCm2XP_-11" value="schema:identifier&lt;br&gt;schema:name&lt;br&gt;dqv:value&lt;br&gt;ftr:log&lt;br&gt;schema:license&lt;br&gt;schema:description&lt;br&gt;ftr:affectedElements" style="rounded=0;whiteSpace=wrap;html=1;snapToPoint=1;points=[[0.1,0],[0.2,0],[0.3,0],[0.4,0],[0.5,0],[0.6,0],[0.7,0],[0.8,0],[0.9,0],[0,0.1],[0,0.3],[0,0.5],[0,0.7],[0,0.9],[0.1,1],[0.2,1],[0.3,1],[0.4,1],[0.5,1],[0.6,1],[0.7,1],[0.8,1],[0.9,1],[1,0.1],[1,0.3],[1,0.5],[1,0.7],[1,0.9]];" parent="1" vertex="1">
          <mxGeometry x="520" y="250" width="179" height="100" as="geometry" />
        </mxCell>
        <mxCell id="vI-MFLkhHtfMaqCm2XP_-17" value="dqv:isQualityMeasurementOf" style="edgeStyle=orthogonalEdgeStyle;rounded=0;orthogonalLoop=1;jettySize=auto;html=1;exitX=1;exitY=0.5;exitDx=0;exitDy=0;" parent="1" source="vI-MFLkhHtfMaqCm2XP_-12" target="vI-MFLkhHtfMaqCm2XP_-16" edge="1">
          <mxGeometry relative="1" as="geometry" />
        </mxCell>
        <mxCell id="vI-MFLkhHtfMaqCm2XP_-12" value="ftr:TestResult" style="rounded=0;whiteSpace=wrap;html=1;snapToPoint=1;points=[[0.1,0],[0.2,0],[0.3,0],[0.4,0],[0.5,0],[0.6,0],[0.7,0],[0.8,0],[0.9,0],[0,0.1],[0,0.3],[0,0.5],[0,0.7],[0,0.9],[0.1,1],[0.2,1],[0.3,1],[0.4,1],[0.5,1],[0.6,1],[0.7,1],[0.8,1],[0.9,1],[1,0.1],[1,0.3],[1,0.5],[1,0.7],[1,0.9]];" parent="1" vertex="1">
          <mxGeometry x="520" y="219.9999999999999" width="179" height="30" as="geometry" />
        </mxCell>
        <mxCell id="vI-MFLkhHtfMaqCm2XP_-13" value="prov:Entity, &lt;br&gt;dqv:QualityMeasurement" style="rounded=0;whiteSpace=wrap;html=1;snapToPoint=1;points=[[0.1,0],[0.2,0],[0.3,0],[0.4,0],[0.5,0],[0.6,0],[0.7,0],[0.8,0],[0.9,0],[0,0.1],[0,0.3],[0,0.5],[0,0.7],[0,0.9],[0.1,1],[0.2,1],[0.3,1],[0.4,1],[0.5,1],[0.6,1],[0.7,1],[0.8,1],[0.9,1],[1,0.1],[1,0.3],[1,0.5],[1,0.7],[1,0.9]];" parent="1" vertex="1">
          <mxGeometry x="529.25" y="140" width="160.5" height="30" as="geometry" />
        </mxCell>
        <mxCell id="vI-MFLkhHtfMaqCm2XP_-14" value="" style="endArrow=block;html=1;fontColor=#000099;exitX=0.5;exitY=0;exitDx=0;exitDy=0;endFill=0;entryX=0.5;entryY=1;entryDx=0;entryDy=0;endSize=8;arcSize=0;rounded=0;" parent="1" source="vI-MFLkhHtfMaqCm2XP_-12" target="vI-MFLkhHtfMaqCm2XP_-13" edge="1">
          <mxGeometry width="50" height="50" relative="1" as="geometry">
            <mxPoint x="270" y="250" as="sourcePoint" />
            <mxPoint x="270" y="180" as="targetPoint" />
          </mxGeometry>
        </mxCell>
        <mxCell id="vI-MFLkhHtfMaqCm2XP_-16" value="dqv:Metric" style="rounded=0;whiteSpace=wrap;html=1;snapToPoint=1;points=[[0.1,0],[0.2,0],[0.3,0],[0.4,0],[0.5,0],[0.6,0],[0.7,0],[0.8,0],[0.9,0],[0,0.1],[0,0.3],[0,0.5],[0,0.7],[0,0.9],[0.1,1],[0.2,1],[0.3,1],[0.4,1],[0.5,1],[0.6,1],[0.7,1],[0.8,1],[0.9,1],[1,0.1],[1,0.3],[1,0.5],[1,0.7],[1,0.9]];" parent="1" vertex="1">
          <mxGeometry x="730" y="289.9999999999999" width="179" height="30" as="geometry" />
        </mxCell>
        <mxCell id="vI-MFLkhHtfMaqCm2XP_-22" value="prov:used" style="edgeStyle=orthogonalEdgeStyle;rounded=0;orthogonalLoop=1;jettySize=auto;html=1;exitX=1;exitY=0.5;exitDx=0;exitDy=0;" parent="1" source="vI-MFLkhHtfMaqCm2XP_-18" target="vI-MFLkhHtfMaqCm2XP_-21" edge="1">
          <mxGeometry relative="1" as="geometry" />
        </mxCell>
        <mxCell id="vI-MFLkhHtfMaqCm2XP_-25" style="edgeStyle=orthogonalEdgeStyle;rounded=0;orthogonalLoop=1;jettySize=auto;html=1;exitX=0.5;exitY=1;exitDx=0;exitDy=0;entryX=0.5;entryY=0;entryDx=0;entryDy=0;endArrow=block;endFill=0;" parent="1" source="vI-MFLkhHtfMaqCm2XP_-18" target="vI-MFLkhHtfMaqCm2XP_-24" edge="1">
          <mxGeometry relative="1" as="geometry" />
        </mxCell>
        <mxCell id="vI-MFLkhHtfMaqCm2XP_-18" value="ftr:AssessmentActivity" style="rounded=0;whiteSpace=wrap;html=1;snapToPoint=1;points=[[0.1,0],[0.2,0],[0.3,0],[0.4,0],[0.5,0],[0.6,0],[0.7,0],[0.8,0],[0.9,0],[0,0.1],[0,0.3],[0,0.5],[0,0.7],[0,0.9],[0.1,1],[0.2,1],[0.3,1],[0.4,1],[0.5,1],[0.6,1],[0.7,1],[0.8,1],[0.9,1],[1,0.1],[1,0.3],[1,0.5],[1,0.7],[1,0.9]];" parent="1" vertex="1">
          <mxGeometry x="220" y="430" width="170" height="30" as="geometry" />
        </mxCell>
        <mxCell id="vI-MFLkhHtfMaqCm2XP_-21" value="ftr:AssessedResource" style="rounded=0;whiteSpace=wrap;html=1;snapToPoint=1;points=[[0.1,0],[0.2,0],[0.3,0],[0.4,0],[0.5,0],[0.6,0],[0.7,0],[0.8,0],[0.9,0],[0,0.1],[0,0.3],[0,0.5],[0,0.7],[0,0.9],[0.1,1],[0.2,1],[0.3,1],[0.4,1],[0.5,1],[0.6,1],[0.7,1],[0.8,1],[0.9,1],[1,0.1],[1,0.3],[1,0.5],[1,0.7],[1,0.9]];" parent="1" vertex="1">
          <mxGeometry x="520" y="429.9999999999999" width="179" height="30" as="geometry" />
        </mxCell>
        <mxCell id="vI-MFLkhHtfMaqCm2XP_-24" value="prov:Activity" style="rounded=0;whiteSpace=wrap;html=1;snapToPoint=1;points=[[0.1,0],[0.2,0],[0.3,0],[0.4,0],[0.5,0],[0.6,0],[0.7,0],[0.8,0],[0.9,0],[0,0.1],[0,0.3],[0,0.5],[0,0.7],[0,0.9],[0.1,1],[0.2,1],[0.3,1],[0.4,1],[0.5,1],[0.6,1],[0.7,1],[0.8,1],[0.9,1],[1,0.1],[1,0.3],[1,0.5],[1,0.7],[1,0.9]];" parent="1" vertex="1">
          <mxGeometry x="255" y="520" width="100" height="30" as="geometry" />
        </mxCell>
        <mxCell id="4Ok5eEkKAuBObgln4hZ5-2" value="prov:wasAssociatedWith" style="edgeStyle=orthogonalEdgeStyle;rounded=0;orthogonalLoop=1;jettySize=auto;html=1;exitX=1;exitY=0.5;exitDx=0;exitDy=0;entryX=0;entryY=0.7;entryDx=0;entryDy=0;" edge="1" parent="1" source="vI-MFLkhHtfMaqCm2XP_-26" target="vI-MFLkhHtfMaqCm2XP_-27">
          <mxGeometry relative="1" as="geometry" />
        </mxCell>
        <mxCell id="vI-MFLkhHtfMaqCm2XP_-26" value="ftr:usedAPI" style="rounded=0;whiteSpace=wrap;html=1;snapToPoint=1;points=[[0.1,0],[0.2,0],[0.3,0],[0.4,0],[0.5,0],[0.6,0],[0.7,0],[0.8,0],[0.9,0],[0,0.1],[0,0.3],[0,0.5],[0,0.7],[0,0.9],[0.1,1],[0.2,1],[0.3,1],[0.4,1],[0.5,1],[0.6,1],[0.7,1],[0.8,1],[0.9,1],[1,0.1],[1,0.3],[1,0.5],[1,0.7],[1,0.9]];" parent="1" vertex="1">
          <mxGeometry x="220" y="460" width="170" height="30" as="geometry" />
        </mxCell>
        <mxCell id="vI-MFLkhHtfMaqCm2XP_-31" style="edgeStyle=orthogonalEdgeStyle;rounded=0;orthogonalLoop=1;jettySize=auto;html=1;exitX=1;exitY=0.5;exitDx=0;exitDy=0;entryX=0;entryY=0.5;entryDx=0;entryDy=0;endArrow=block;endFill=0;" parent="1" source="vI-MFLkhHtfMaqCm2XP_-27" target="vI-MFLkhHtfMaqCm2XP_-30" edge="1">
          <mxGeometry relative="1" as="geometry" />
        </mxCell>
        <mxCell id="vI-MFLkhHtfMaqCm2XP_-27" value="ftr:AssessmentTool" style="rounded=0;whiteSpace=wrap;html=1;snapToPoint=1;points=[[0.1,0],[0.2,0],[0.3,0],[0.4,0],[0.5,0],[0.6,0],[0.7,0],[0.8,0],[0.9,0],[0,0.1],[0,0.3],[0,0.5],[0,0.7],[0,0.9],[0.1,1],[0.2,1],[0.3,1],[0.4,1],[0.5,1],[0.6,1],[0.7,1],[0.8,1],[0.9,1],[1,0.1],[1,0.3],[1,0.5],[1,0.7],[1,0.9]];" parent="1" vertex="1">
          <mxGeometry x="520" y="469.9999999999999" width="179" height="30" as="geometry" />
        </mxCell>
        <mxCell id="vI-MFLkhHtfMaqCm2XP_-29" value="schema:softwareVersion&lt;br&gt;schema:url" style="rounded=0;whiteSpace=wrap;html=1;snapToPoint=1;points=[[0.1,0],[0.2,0],[0.3,0],[0.4,0],[0.5,0],[0.6,0],[0.7,0],[0.8,0],[0.9,0],[0,0.1],[0,0.3],[0,0.5],[0,0.7],[0,0.9],[0.1,1],[0.2,1],[0.3,1],[0.4,1],[0.5,1],[0.6,1],[0.7,1],[0.8,1],[0.9,1],[1,0.1],[1,0.3],[1,0.5],[1,0.7],[1,0.9]];" parent="1" vertex="1">
          <mxGeometry x="520" y="499" width="179" height="51" as="geometry" />
        </mxCell>
        <mxCell id="vI-MFLkhHtfMaqCm2XP_-30" value="schema:SoftwareApplication" style="rounded=0;whiteSpace=wrap;html=1;snapToPoint=1;points=[[0.1,0],[0.2,0],[0.3,0],[0.4,0],[0.5,0],[0.6,0],[0.7,0],[0.8,0],[0.9,0],[0,0.1],[0,0.3],[0,0.5],[0,0.7],[0,0.9],[0.1,1],[0.2,1],[0.3,1],[0.4,1],[0.5,1],[0.6,1],[0.7,1],[0.8,1],[0.9,1],[1,0.1],[1,0.3],[1,0.5],[1,0.7],[1,0.9]];" parent="1" vertex="1">
          <mxGeometry x="730" y="470" width="170" height="30" as="geometry" />
        </mxCell>
      </root>
    </mxGraphModel>
  </diagram>
</mxfile>
